<svg xmlns="http://www.w3.org/2000/svg" width="1024" height="1024" viewBox="0 0 270.933 270.933"><rect width="250.945" height="250.945" x="9.994" y="9.994" rx="55.574" style="fill:none;fill-opacity:1;stroke:#ececec;stroke-width:19.988;stroke-dasharray:none;stroke-opacity:1"/><path d="M131.188 203.916H27.931v-19.057L94.436 89.38H29.68V65.073h99.757V84.13l-66.504 95.479h68.254ZM195.36 95.797q22.168 0 34.808 12.446 12.834 12.445 12.834 35.78v14.195h-68.255q.584 12.057 7.39 19.057 7 6.806 20.029 6.806 9.917 0 18.084-1.944 8.168-1.945 16.724-5.834v21.974q-7.779 3.889-16.53 5.639-8.75 1.945-21.39 1.945-15.75 0-28.002-5.834-12.056-6.028-19.056-18.085-7-12.056-7-30.335 0-27.808 13.806-41.809 14-14 36.558-14m.778 20.807q-8.751 0-14.39 5.64-5.445 5.444-6.223 16.334h40.058q-.194-9.528-5.056-15.751-4.667-6.223-14.39-6.223" aria-label="Ze" style="font-weight:700;font-size:194.458px;font-family:Sans;-inkscape-font-specification:&quot;Sans, Bold&quot;;fill:#ececec;stroke-width:1.0128"/></svg>