<svg xmlns="http://www.w3.org/2000/svg" width="1024" height="1024" viewBox="0 0 270.933 270.933"><path d="M130.602 215.608h-117.4v-22.312L88.816 81.508H15.192v-28.46h113.42v22.313L53 187.149h77.603zM203.563 89.02q25.205 0 39.576 14.571 14.592 14.572 14.592 41.892v16.62h-77.603q.663 14.116 8.401 22.313 7.96 7.968 22.773 7.968 11.276 0 20.561-2.277 9.286-2.276 19.015-6.83v25.727q-8.844 4.554-18.793 6.603-9.95 2.277-24.32 2.277-17.91 0-31.838-6.83-13.708-7.059-21.667-21.174-7.96-14.116-7.96-35.517 0-32.558 15.698-48.95 15.919-16.393 41.565-16.393m.885 24.361q-9.95 0-16.361 6.603-6.19 6.375-7.075 19.124h45.545q-.22-11.156-5.748-18.441-5.306-7.286-16.361-7.286" aria-label="Ze" style="font-weight:700;font-size:194.458px;font-family:Sans;-inkscape-font-specification:&quot;Sans, Bold&quot;;fill:#1a1a1a;fill-opacity:1;stroke-width:1.16854"/></svg>