<?xml version="1.0" encoding="UTF-8" standalone="no"?>
<!-- Created with Inkscape (http://www.inkscape.org/) -->

<svg
   width="1024"
   height="1024"
   viewBox="0 0 270.9333 270.9333"
   version="1.1"
   id="svg1"
   inkscape:version="1.4.2 (ebf0e940d0, 2025-05-08)"
   sodipodi:docname="logo-white.svg"
   xmlns:inkscape="http://www.inkscape.org/namespaces/inkscape"
   xmlns:sodipodi="http://sodipodi.sourceforge.net/DTD/sodipodi-0.dtd"
   xmlns="http://www.w3.org/2000/svg"
   xmlns:svg="http://www.w3.org/2000/svg">
  <sodipodi:namedview
     id="namedview1"
     pagecolor="#ffffff"
     bordercolor="#111111"
     borderopacity="1"
     inkscape:showpageshadow="0"
     inkscape:pageopacity="0"
     inkscape:pagecheckerboard="1"
     inkscape:deskcolor="#d1d1d1"
     inkscape:document-units="mm"
     inkscape:zoom="0.88017784"
     inkscape:cx="519.21325"
     inkscape:cy="549.3208"
     inkscape:window-width="2304"
     inkscape:window-height="1363"
     inkscape:window-x="0"
     inkscape:window-y="0"
     inkscape:window-maximized="1"
     inkscape:current-layer="layer1" />
  <defs
     id="defs1">
    <inkscape:path-effect
       effect="fillet_chamfer"
       id="path-effect2"
       is_visible="true"
       lpeversion="1"
       nodesatellites_param="F,0,0,1,0,0,0,1 @ F,0,0,1,0,0,0,1 @ F,0,0,1,0,0,0,1 @ F,0,0,1,0,0,0,1"
       radius="0"
       unit="px"
       method="auto"
       mode="F"
       chamfer_steps="1"
       flexible="false"
       use_knot_distance="true"
       apply_no_radius="true"
       apply_with_radius="true"
       only_selected="false"
       hide_knots="false" />
    <inkscape:path-effect
       effect="fillet_chamfer"
       id="path-effect1"
       is_visible="true"
       lpeversion="1"
       nodesatellites_param="F,0,0,1,0,0,0,1 @ F,0,0,1,0,0,0,1 @ F,0,0,1,0,0,0,1 @ F,0,0,1,0,0,0,1"
       radius="0"
       unit="px"
       method="auto"
       mode="F"
       chamfer_steps="1"
       flexible="false"
       use_knot_distance="true"
       apply_no_radius="true"
       apply_with_radius="true"
       only_selected="false"
       hide_knots="false" />
  </defs>
  <g
     inkscape:label="Layer 1"
     inkscape:groupmode="layer"
     id="layer1">
    <rect
       style="fill:#e6e6e6;stroke-width:0.266408"
       id="rect1"
       width="270.93332"
       height="270.93332"
       x="0"
       y="0"
       sodipodi:type="rect"
       rx="60" />
    <path
       d="M 131.18846,203.91592 H 27.931268 V 184.85904 L 94.435902,89.380166 H 29.68139 V 65.072917 h 99.75695 V 84.129801 L 62.933707,179.60868 H 131.18846 Z M 195.35969,95.79728 q 22.16821,0 34.80798,12.44531 12.83423,12.44531 12.83423,35.78027 v 14.19544 h -68.25475 q 0.58337,12.05639 7.3894,19.05688 7.00049,6.80603 20.02917,6.80603 9.91736,0 18.0846,-1.94458 8.16723,-1.94458 16.72338,-5.83374 v 21.97375 q -7.77832,3.88916 -16.52893,5.63928 -8.75061,1.94458 -21.39038,1.94458 -15.75109,0 -28.00195,-5.83374 -12.05639,-6.02819 -19.05688,-18.08459 -7.00049,-12.05639 -7.00049,-30.33545 0,-27.80749 13.80652,-41.80846 14.00098,-14.00098 36.5581,-14.00098 z m 0.77783,20.80701 q -8.75061,0 -14.38989,5.63928 -5.44482,5.44482 -6.22265,16.33447 h 40.05834 q -0.19445,-9.52844 -5.0559,-15.7511 -4.667,-6.22265 -14.3899,-6.22265 z"
       id="text2"
       style="font-weight:bold;font-size:194.458px;font-family:Sans;-inkscape-font-specification:'Sans, Bold';fill:#333333;stroke-width:1.0128"
       aria-label="Ze" />
  </g>
</svg>
