<svg xmlns="http://www.w3.org/2000/svg" xml:space="preserve" width="16" height="16"><title>ui-play</title><path fill="#c5c5c5" fill-rule="evenodd" d="m3.5 1.5-1 1v4h1v-4h5v10.879L9.622 14.5H14.5l1-1v-11l-1-1zm11 1h-5v11h5z" clip-rule="evenodd" style="fill:#ccc;fill-opacity:1"/><g fill="#3ea8ff" style="fill:#ccc;fill-opacity:1"><path d="M3.9 83.3h17c.9 0 1.7-.5 2.2-1.2L69.9 5.2c.6-1-.1-2.2-1.3-2.2H52.5c-.8 0-1.5.4-1.9 1.1L3.1 81.9c-.3.6.1 1.4.8 1.4M62.5 82.1l22.1-35.5c.7-1.1-.1-2.5-1.4-2.5h-16c-.6 0-1.2.3-1.5.8L43 81.2c-.6.9.1 2.1 1.2 2.1h16.3c.8 0 1.6-.4 2-1.2" class="st0" style="fill:#ccc;fill-opacity:1" transform="translate(.607 6.49)scale(.08763)"/></g></svg>